# xmcd
#
# Track frame offsets: 
#        150
#        20937
#        38618
#        55727
#        74601
#        95664
#        118526
#        138489
#        152270
#        176536
#        194433
#
# Disc length: 2890 seconds
#
# Revision: 0
# Processed by: cddbd v1.4PL0 Copyright (c) Steve Scherf et al.
# Submitted via: ExactAudioCopy v0.90b4
#
DISCID=960b480b
DTITLE=john prine - 1993-07-30
DYEAR=1993
DGENRE=Country
TTITLE0=speed of the sound of loneliness
TTITLE1=picture show
TTITLE2=i wish you all the best
TTITLE3=dear abby
TTITLE4=illegal smile
TTITLE5=sam stone
TTITLE6=ain't hurtin' no one
TTITLE7=that's the way
TTITLE8=just like way back then
TTITLE9=angel from montgomery
TTITLE10=hello in there
EXTD=
EXTT0=
EXTT1=
EXTT2=
EXTT3=
EXTT4=
EXTT5=
EXTT6=
EXTT7=
EXTT8=
EXTT9=
EXTT10=
PLAYORDER=
